<?xml version="1.0" encoding="utf-8"?>
<!-- Generator: Adobe Illustrator 25.1.0, SVG Export Plug-In . SVG Version: 6.00 Build 0)  -->
<svg version="1.1" id="Layer_1" xmlns="http://www.w3.org/2000/svg" xmlns:xlink="http://www.w3.org/1999/xlink" x="0px" y="0px"
	 viewBox="0 0 537.6 537.6" style="enable-background:new 0 0 537.6 537.6;" xml:space="preserve">
<style type="text/css">
	.st0{opacity:0.15;fill:url(#SVGID_1_);enable-background:new    ;}
	.st1{fill:#FFFFFF;}
</style>
<linearGradient id="SVGID_1_" gradientUnits="userSpaceOnUse" x1="0" y1="271.2" x2="537.6" y2="271.2" gradientTransform="matrix(1 0 0 -1 0 540)">
	<stop  offset="0" style="stop-color:#333333"/>
	<stop  offset="0.1419" style="stop-color:#0E0E0E"/>
	<stop  offset="0.5126" style="stop-color:#0E0E0E"/>
	<stop  offset="0.7351" style="stop-color:#303030"/>
</linearGradient>
<circle class="st0" cx="268.8" cy="268.8" r="268.8"/>
<path class="st1" d="M268.8,0C120.3,0,0,120.3,0,268.8s120.3,268.8,268.8,268.8s268.8-120.3,268.8-268.8S417.3,0,268.8,0z
	 M205.9,124.5h180.9v10H205.9V124.5z M186.8,134.5h-41.9v-10h41.9 M60,163.2l8.8-4.7c29.8,55.3,95.7,94.1,171.8,101.2l1.8,0.2
	l48.3,50.2v-50.2l4.5-0.5c74.7-7.9,139.3-46.5,168.6-100.9l8.8,4.7c-30.3,56.1-95.8,96.3-171.9,105.5v66l-62.9-65.4
	C159.1,261.6,91.1,221,60,163.2z M402.6,357.5c-49.5,0-96.7,11.3-136.5,32.7c-38.7,20.8-67.2,49.4-82.4,82.5l-9.1-4.2
	c33.2-72.4,124.8-121.1,228-121.1c26.3,0,52.1,3.1,76.8,9.3l-2.4,9.7C453.1,360.5,428.1,357.5,402.6,357.5z"/>
</svg>
