<?xml version="1.0" encoding="utf-8"?>
<!-- Generator: Adobe Illustrator 25.0.1, SVG Export Plug-In . SVG Version: 6.00 Build 0)  -->
<svg version="1.1" id="Layer_1" xmlns="http://www.w3.org/2000/svg" xmlns:xlink="http://www.w3.org/1999/xlink" x="0px" y="0px"
	 viewBox="0 0 519.1 457.6" style="enable-background:new 0 0 519.1 457.6;" xml:space="preserve">
<style type="text/css">
	.st0{fill:#0E0E0E;}
</style>
<path class="st0" d="M-0.6,331.4c0,55.7,45.2,100.9,100.9,100.9c32.2,0,62.5-15.4,81.5-41.4L54.3,241.5
	C20.6,258.8-0.6,293.5-0.6,331.4z"/>
<path class="st0" d="M506.6,120.2c0-66.5-53.9-120.5-120.4-120.5c-59,0-109.3,42.7-118.9,101c52.2,4,93.5,47.9,93.5,101
	c0,56-45.3,101.3-101.3,101.3c-56,0-101.3-45.3-101.3-101.3c0,0,0,0,0,0c0-53.1,41.3-97,93.5-101C240.9,35,179-9.5,113.3,1.2
	c-58.2,9.6-101,59.9-101,118.9c0,31.3,10.4,55.1,32.4,85.6l214.7,251.6l214.7-251.6C496.2,175.3,506.6,151.4,506.6,120.2z"/>
<path class="st0" d="M464.7,241.5L337.3,390.8c32.8,45,95.9,54.9,141,22s54.9-95.9,22-141C490.9,259.1,478.8,248.7,464.7,241.5z"/>
<g>
	<circle class="st0" cx="219" cy="199" r="19"/>
	<circle class="st0" cx="300" cy="199" r="19"/>
</g>
</svg>
