<?xml version="1.0" encoding="utf-8"?>
<!-- Generator: Adobe Illustrator 25.0.1, SVG Export Plug-In . SVG Version: 6.00 Build 0)  -->
<svg version="1.1" id="Layer_1" xmlns="http://www.w3.org/2000/svg" xmlns:xlink="http://www.w3.org/1999/xlink" x="0px" y="0px"
	 viewBox="0 0 609.9 537.6" style="enable-background:new 0 0 609.9 537.6;" xml:space="preserve">
<style type="text/css">
	.st0{opacity:0.15;fill:url(#SVGID_1_);}
	.st1{fill:#FFFFFF;}
</style>
<linearGradient id="SVGID_1_" gradientUnits="userSpaceOnUse" x1="126.2792" y1="516.5687" x2="640.1855" y2="-196.1784">
	<stop  offset="0" style="stop-color:#333333"/>
	<stop  offset="0.1419" style="stop-color:#0E0E0E"/>
	<stop  offset="0.5126" style="stop-color:#0E0E0E"/>
	<stop  offset="0.7351" style="stop-color:#303030"/>
</linearGradient>
<rect x="0" y="0" class="st0" width="609.9" height="537.6"/>
<path class="st1" d="M0,0v537.6h609.9V0H0z M145.7,472.3c-55.7,0-100.9-45.2-100.9-100.9c0-37.9,21.2-72.6,54.9-89.9l127.5,149.4
	C208.2,456.9,177.9,472.3,145.7,472.3z M90.1,245.7c-22-30.5-32.4-54.3-32.4-85.6c0-59,42.8-109.3,101-118.9
	c65.7-10.7,127.6,33.8,138.4,99.5c-52.2,4-93.5,47.9-93.5,101c0,56,45.3,101.3,101.3,101.3s101.3-45.3,101.3-101.3
	c0-53.1-41.3-97-93.5-101c9.6-58.3,59.9-101,118.9-101c66.5,0,120.4,54,120.4,120.5c0,31.2-10.4,55.1-32.5,85.5L304.8,497.3
	L90.1,245.7z M283.4,239c0,10.5-8.5,19-19,19c-10.5,0-19-8.5-19-19s8.5-19,19-19C274.9,220,283.4,228.5,283.4,239z M326.4,239
	c0-10.5,8.5-19,19-19s19,8.5,19,19s-8.5,19-19,19S326.4,249.5,326.4,239z M523.7,452.8c-45.1,32.9-108.2,23-141-22l127.4-149.3
	c14.1,7.2,26.2,17.6,35.6,30.3C578.6,356.9,568.8,419.9,523.7,452.8z"/>
</svg>
