<?xml version="1.0" encoding="utf-8"?>
<!-- Generator: Adobe Illustrator 25.1.0, SVG Export Plug-In . SVG Version: 6.00 Build 0)  -->
<svg version="1.1" id="Layer_1" xmlns="http://www.w3.org/2000/svg" xmlns:xlink="http://www.w3.org/1999/xlink" x="0px" y="0px"
	 viewBox="0 0 537.6 537.6" style="enable-background:new 0 0 537.6 537.6;" xml:space="preserve">
<style type="text/css">
	.st0{opacity:0.15;fill:url(#SVGID_1_);enable-background:new    ;}
	.st1{fill:#FFFFFF;}
</style>
<linearGradient id="SVGID_1_" gradientUnits="userSpaceOnUse" x1="0" y1="271.2" x2="537.6" y2="271.2" gradientTransform="matrix(1 0 0 -1 0 540)">
	<stop  offset="0" style="stop-color:#333333"/>
	<stop  offset="0.1419" style="stop-color:#0E0E0E"/>
	<stop  offset="0.5126" style="stop-color:#0E0E0E"/>
	<stop  offset="0.7351" style="stop-color:#303030"/>
</linearGradient>
<circle class="st0" cx="268.8" cy="268.8" r="268.8"/>
<path class="st1" d="M268.8,0C120.3,0,0,120.3,0,268.8s120.3,268.8,268.8,268.8s268.8-120.3,268.8-268.8S417.3,0,268.8,0z
	 M102.4,266.8c-5.9,0-10.7-4.8-10.7-10.7c0-5.9,4.8-10.7,10.7-10.7c5.9,0,10.7,4.8,10.7,10.7C113,262,108.3,266.8,102.4,266.8z
	 M336.5,288.6c34,40.9,60.5,84.7,78.7,130.1l-9.3,3.7c-17.8-44.4-43.7-87.3-76.9-127.3c-8.6-10.4-17.8-20.6-27.4-30.6
	c-8.7,4.4-16.9,5.8-24.9,7.2c-12.5,2.2-24.4,4.3-38.3,18.5c-13.9,14.2-15.8,26-17.8,38.6c-2.1,13.6-4.4,27.6-20.5,44
	c-16.1,16.4-30.1,18.9-43.7,21.3c-12.5,2.2-24.4,4.3-38.3,18.5l-7.1-7c16.1-16.4,30.1-18.9,43.7-21.3c12.5-2.2,24.4-4.3,38.3-18.5
	c13.9-14.2,15.8-26,17.8-38.6c2.1-13.6,4.4-27.6,20.5-44c16.1-16.4,30.1-18.9,43.7-21.3c6.4-1.1,12.7-2.2,19.2-5
	c-18.1-18.2-37.7-35.6-58.7-52.1c-60.3-47.5-111.8-71.3-112.3-71.5l4.2-9.1c0.5,0.2,52.8,24.5,114.1,72.6
	c22.2,17.4,42.9,35.9,61.8,55.1c3.2-2.2,6.5-5,10-8.5c13.9-14.2,15.8-26,17.8-38.6c2.1-13.6,4.4-27.6,20.5-44
	c16.1-16.4,30.1-18.9,43.7-21.3c12.5-2.2,24.4-4.3,38.3-18.5l7.1,7c-16.1,16.4-30.1,18.9-43.7,21.3c-12.5,2.2-24.4,4.3-38.3,18.5
	s-15.8,26-17.8,38.6c-2.1,13.6-4.4,27.6-20.5,44c-3.4,3.5-6.8,6.4-10,8.7C319.4,268.8,328.2,278.6,336.5,288.6z"/>
</svg>
