<svg id="Layer_1" data-name="Layer 1" xmlns="http://www.w3.org/2000/svg" viewBox="0 0 5039.06 2510.81"><defs><style>.cls-1{fill:#f7f7f7;}.cls-1,.cls-2{stroke:#fff;stroke-miterlimit:10;stroke-width:8px;}.cls-2{fill:none;}</style></defs><rect class="cls-1" x="393.96" y="337.76" width="551.05" height="154.66"/><rect class="cls-1" x="1688.34" y="1128.36" width="551.05" height="154.66"/><rect class="cls-1" x="2873.98" y="554.29" width="551.05" height="154.66"/><rect class="cls-1" x="4218.55" y="307.18" width="551.05" height="154.66"/><rect class="cls-1" x="720.14" y="668.05" width="551.05" height="154.66"/><rect class="cls-1" x="1153.36" y="1730.17" width="551.05" height="154.66"/><rect class="cls-1" x="3494.74" y="2145.69" width="551.05" height="154.66"/><rect class="cls-1" x="3770.27" y="1467.66" width="551.05" height="154.66"/><rect class="cls-1" x="1250.17" y="229.85" width="551.05" height="154.66"/><line class="cls-2" x1="693.59" y1="492.42" x2="891.91" y2="668.05"/><line class="cls-2" x1="1067.39" y1="668.05" x2="1412.16" y2="384.51"/><line class="cls-2" x1="3687.74" y1="1104.25" x2="4045.79" y2="1467.66"/><circle class="cls-1" cx="632.05" cy="1506.6" r="223.57"/><line class="cls-2" x1="408.48" y1="1506.6" x2="855.63" y2="1506.6"/><circle class="cls-1" cx="3618.43" cy="891.63" r="223.57"/><line class="cls-2" x1="3394.86" y1="891.63" x2="3842.01" y2="891.63"/><line class="cls-2" x1="1579.98" y1="384.51" x2="1963.87" y2="1128.36"/><line class="cls-2" x1="995.66" y1="822.72" x2="720.14" y2="1301.05"/><line class="cls-2" x1="1841.36" y1="1283.02" x2="1623.29" y2="1730.17"/><line class="cls-2" x1="4123.74" y1="1467.66" x2="4494.08" y2="461.84"/><line class="cls-2" x1="4061.97" y1="1623.59" x2="3770.27" y2="2145.69"/><line class="cls-2" x1="4321.32" y1="1559.48" x2="5039.06" y2="1061.88"/><line class="cls-2" x1="1348.22" y1="1884.84" x2="1035.26" y2="2510.81"/><line class="cls-2" x1="1487.09" y1="1884.84" x2="1891.72" y2="2510.81"/><line class="cls-2" x1="468.84" y1="1350.89" y2="938.73"/><line class="cls-2" x1="3670.06" y1="2300.35" x2="3566.8" y2="2510.81"/><line class="cls-2" x1="3770.27" y1="2300.35" x2="3931.43" y2="2510.81"/><line class="cls-2" x1="3279.62" y1="554.29" x2="3485.99" y2="-28.16"/><line class="cls-2" x1="3118.28" y1="554.29" x2="2813.08" y2="-28.63"/><line class="cls-2" x1="478.44" y1="1669.03" y2="2108.26"/><line class="cls-2" x1="4218.55" y1="1623.59" x2="5039.06" y2="2314.51"/><line class="cls-2" x1="2239.4" y1="1205.69" x2="3770.27" y2="1544.99"/><line class="cls-2" x1="1428.89" y1="1888.65" x2="1250.17" y2="2510.81"/><line class="cls-2" x1="1630.29" y1="229.85" x2="1801.23" y2="-29.79"/><line class="cls-2" x1="4690.64" y1="459.18" x2="5039.06" y2="857.13"/></svg>