<?xml version="1.0" encoding="utf-8"?>
<!-- Generator: Adobe Illustrator 25.0.1, SVG Export Plug-In . SVG Version: 6.00 Build 0)  -->
<svg version="1.1" id="Layer_1" xmlns="http://www.w3.org/2000/svg" xmlns:xlink="http://www.w3.org/1999/xlink" x="0px" y="0px"
	 viewBox="0 0 93 97.2" style="enable-background:new 0 0 93 97.2;" xml:space="preserve">
<style type="text/css">
	.st0{fill:#FF4329;stroke:#FF4329;stroke-width:0.75;stroke-miterlimit:10;}
</style>
<g id="Layer_2_1_">
	<path class="st0" d="M3.3,89.6c-1.5,0.1-2.8-1.1-2.9-2.6c0-0.1,0-0.2,0-0.3C2,63.3,22,44.8,46.5,44.8S91,63.3,92.6,86.7
		c0.1,1.5-1.1,2.8-2.6,2.9c-0.1,0-0.2,0-0.3,0c-24.1-1.5-43.2-21-43.2-44.8S65.6,1.5,89.7,0c1.5-0.1,2.8,1.1,2.9,2.6
		c0,0.1,0,0.2,0,0.3C91,26.3,71,44.8,46.5,44.8S2,26.3,0.4,2.9C0.3,1.4,1.5,0.1,3,0c0.1,0,0.2,0,0.3,0c24.1,1.5,43.2,21,43.2,44.8
		S27.4,88.1,3.3,89.6z"/>
</g>
</svg>
