<?xml version="1.0" encoding="utf-8"?>
<!-- Generator: Adobe Illustrator 25.0.1, SVG Export Plug-In . SVG Version: 6.00 Build 0)  -->
<svg version="1.1" id="Layer_1" xmlns="http://www.w3.org/2000/svg" xmlns:xlink="http://www.w3.org/1999/xlink" x="0px" y="0px"
	 viewBox="0 0 93 82.4" style="enable-background:new 0 0 93 82.4;" xml:space="preserve">
<style type="text/css">
	.st0{fill:#0C0C0C;}
</style>
<g>
	<path class="st0" d="M40.7,12.6C40.7,12.7,40.7,12.7,40.7,12.6c0,0.2,0.1,0.3,0.1,0.4l0.1,0.2c0,0.1,0,0.1,0.1,0.2
		c0.5,1.4,1.6,2.5,3,3c0.1,0,0.2,0.1,0.3,0.1c0.1,0,0.1,0,0.2,0c0.1,0,0.2,0.1,0.3,0.1c0,0,0.1,0,0.1,0l0.4,0.1h0.1
		c0.3,0,0.6,0,0.9,0h0.1l0.4-0.1c0,0,0.1,0,0.1,0c0.1,0,0.2,0,0.3-0.1c0.1,0,0.1,0,0.2,0c0.1,0,0.2-0.1,0.3-0.1c1.4-0.5,2.5-1.6,3-3
		l0.1-0.2c0-0.1,0-0.1,0.1-0.2c0-0.1,0.1-0.2,0.1-0.4v0c0-0.1,0.1-0.3,0.1-0.5c0-0.2,0-0.4,0-0.5c0-2.8-2.3-5.1-5.1-5.1
		c-2.8,0-5.1,2.3-5.1,5.1c0,0.2,0,0.4,0,0.5C40.6,12.3,40.7,12.5,40.7,12.6z"/>
	<path class="st0" d="M28.2,60h-0.3c-0.1,0-0.2,0-0.2,0c-0.1,0-0.2,0-0.3,0c-0.1,0-0.2,0-0.3,0h-0.1c-0.1,0-0.2,0-0.2,0.1s0,0,0,0
		l-0.2,0.1c0,0,0,0-0.1,0l-0.2,0.1c0,0-0.1,0-0.1,0l-0.1,0.1c0,0-0.1,0-0.1,0.1c0,0-0.1,0-0.1,0s-0.1,0.1-0.2,0.1s0,0,0,0
		c-0.1,0-0.1,0.1-0.2,0.1c-2.5,1.4-3.3,4.6-1.9,7c0.9,1.6,2.7,2.6,4.5,2.6c2.2,0,4.2-1.5,4.9-3.6c0.1-0.2,0.1-0.4,0.1-0.6
		c0-0.1,0-0.1,0-0.2c0-0.1,0-0.1,0-0.1c0,0,0-0.1,0-0.2v-0.4C33.3,62.3,31.1,60,28.2,60z"/>
	<path class="st0" d="M45.7,25.5c-8.7,0-15.7,7-15.7,15.7C30,49.9,37,57,45.7,57c8.7,0,15.7-7,15.7-15.7
		C61.5,32.6,54.4,25.5,45.7,25.5z M49.9,45.5h-1.5l-5.8-7v7h-1.6v-9.3h1.5l5.8,7v-7h1.6V45.5z"/>
	<path class="st0" d="M56.5,14.8c-1.2-0.5-2.5-0.9-3.8-1.2c-0.7,2.7-3,4.8-5.8,5.2h0c-0.1,0-0.2,0-0.3,0h-0.1c-0.1,0-0.2,0-0.3,0
		h-0.9c-0.1,0-0.2,0-0.3,0H45c-0.1,0-0.2,0-0.3,0h0c-2.8-0.4-5.1-2.5-5.9-5.2C23.5,17.4,14.2,32.9,18,48.2c1,4.2,3,8,5.7,11.3
		c0.4-0.3,0.9-0.6,1.3-0.9c0,0,0.1,0,0.1,0c0.1,0,0.1-0.1,0.2-0.1l0.1-0.1c0,0,0.1,0,0.1-0.1c0,0,0.1,0,0.2-0.1c0.1,0,0.1,0,0.1,0
		c0.2-0.1,0.5-0.1,0.7-0.2c0,0,0,0,0.1,0c0.1,0,0.1,0,0.2,0c0.1,0,0.1,0,0.1,0c0,0,0.1,0,0.2,0c0.1,0,0.1,0,0.2,0c0.1,0,0.1,0,0.2,0
		s0.1,0,0.2,0h0.5c4,0,7.2,3.2,7.2,7.2v0.5c0,0.1,0,0.2,0,0.3c0,0,0,0.1,0,0.1c0,0.1,0,0.2,0,0.3c0,0,0,0.1,0,0.1c0,0.1,0,0.2,0,0.3
		c0,0,0,0,0,0.1L35.3,67v0c-0.1,0.3-0.1,0.5-0.2,0.8c14.6,5.9,31.3-1.2,37.2-15.8C78.2,37.3,71.1,20.7,56.5,14.8z M45.7,59.1
		L45.7,59.1c-9.8,0-17.8-8-17.8-17.8c0-9.8,8-17.8,17.8-17.8c9.8,0,17.8,8,17.8,17.8C63.5,51.1,55.6,59.1,45.7,59.1z"/>
	<path class="st0" d="M4.8,35.1H5c2.8,0,5.1-2.3,5.1-5.1c0-0.1,0-0.2,0-0.4v-0.1c0-0.3-0.1-0.5-0.1-0.7C10,28.4,9.8,28,9.7,27.7
		c-0.1-0.2-0.2-0.4-0.4-0.6c0,0,0,0,0-0.1l-0.2-0.2L9,26.7c-0.1-0.1-0.1-0.1-0.2-0.2l-0.1-0.1c-0.1-0.1-0.1-0.1-0.2-0.2
		c0,0-0.1-0.1-0.1-0.1c0,0-0.1-0.1-0.1-0.1c0,0-0.1-0.1-0.1-0.1C8,25.8,8,25.7,7.9,25.7c0,0-0.1-0.1-0.1-0.1c0,0-0.1-0.1-0.1-0.1
		c-0.1,0-0.1-0.1-0.2-0.1c-0.1,0-0.1-0.1-0.2-0.1c0,0-0.1,0-0.1-0.1c-0.1,0-0.2-0.1-0.3-0.1c-0.6-0.2-1.2-0.3-1.8-0.3
		c-2.8,0.1-5.1,2.4-5,5.2c0.1,2.5,2,4.7,4.5,5C4.5,35,4.6,35,4.8,35.1C4.7,35,4.8,35.1,4.8,35.1z"/>
	<path class="st0" d="M85.7,50.4c-0.6-0.2-1.1-0.4-1.6-0.7c-0.4-0.2-0.8-0.5-1.1-0.8l0,0c-0.1-0.1-0.1-0.1-0.2-0.2c0,0,0,0-0.1-0.1
		c-0.1-0.1-0.1-0.1-0.2-0.2c0,0,0-0.1-0.1-0.1c-0.1-0.1-0.1-0.1-0.1-0.2c0,0,0-0.1-0.1-0.1c-0.1-0.1-0.1-0.1-0.2-0.2
		c0,0-0.1-0.1-0.1-0.1c0,0-0.1-0.1-0.1-0.1c0-0.1-0.1-0.1-0.1-0.2c0-0.1,0-0.1-0.1-0.1c0-0.1-0.1-0.1-0.1-0.2c0,0,0,0,0-0.1
		c-0.1-0.2-0.2-0.5-0.4-0.7c0-0.1-0.1-0.1-0.1-0.2c0,0,0,0,0-0.1c0-0.1,0-0.1-0.1-0.2c0,0,0-0.1,0-0.1c0-0.1,0-0.1-0.1-0.2
		c0,0,0-0.1,0-0.1c-0.1-0.2-0.1-0.4-0.1-0.7c0-0.1,0-0.1,0-0.2c0-0.1,0-0.1,0-0.1c0,0,0-0.1,0-0.2c0,0,0-0.1,0-0.1
		c0-0.1,0-0.1,0-0.2v-0.8c0-0.1,0-0.1,0-0.2c0-0.1,0-0.1,0-0.2c0-0.1,0-0.1,0-0.2c0,0,0-0.1,0-0.1c0-0.1,0-0.2,0-0.3v0
		c0.5-2.8,2.7-5.1,5.5-5.7h0c0.1,0,0.2,0,0.2,0c0,0,0,0,0.1,0C84,13.8,63.4-2.3,40.8,0.4c-14,1.7-26.2,10.5-32.3,23.2
		c0.1,0,0.1,0.1,0.2,0.1c0,0,0.1,0.1,0.1,0.1c0.1,0,0.1,0.1,0.2,0.1c0,0,0.1,0,0.1,0.1c0.2,0.1,0.3,0.2,0.5,0.3
		c0.1,0.1,0.1,0.1,0.2,0.2c0,0,0.1,0.1,0.1,0.1l0.2,0.2c0.1,0.1,0.1,0.1,0.2,0.2c0.1,0.1,0.1,0.1,0.2,0.2c0.1,0.1,0.1,0.2,0.2,0.2
		c0.1,0.1,0.1,0.1,0.1,0.1c0,0,0.1,0.2,0.2,0.3s0,0,0,0.1c0.2,0.3,0.3,0.5,0.5,0.8c0.2,0.4,0.4,0.9,0.5,1.3v0
		c0.1,0.3,0.1,0.6,0.2,0.9V29c0,0.1,0,0.3,0,0.4v0.1c0,0.1,0,0.3,0,0.5c0,4-3.2,7.2-7.2,7.2c0,0,0,0,0,0H4.7
		c-0.1,1.3-0.2,2.7-0.2,4.1C4.5,64,23,82.4,45.8,82.4c19.2,0,35.8-13.3,40.1-32C85.8,50.4,85.8,50.4,85.7,50.4z M75.4,48.6
		C72,62.2,59.8,71.8,45.7,71.9c-4,0-8-0.8-11.8-2.3c-2.4,3.2-6.9,3.8-10.1,1.3c-1.8-1.4-2.8-3.5-2.8-5.7c0-1.5,0.4-2.9,1.3-4.1
		C11.4,48.1,13,28.8,25.9,17.9c3.6-3.1,7.9-5.3,12.6-6.4c0.1-4,3.5-7.1,7.5-7c3.8,0.1,6.8,3.2,7,7C69.4,15.5,79.4,32.1,75.4,48.6z"
		/>
	<path class="st0" d="M87.9,38.3l0,0.1h-0.3c-0.1,0-0.1,0-0.2,0h-0.1c-0.1,0-0.1,0-0.2,0c-0.1,0-0.1,0-0.1,0c0,0-0.1,0-0.1,0
		c0,0-0.1,0-0.2,0h0c-2.3,0.5-4,2.6-4,5c0,0.2,0,0.3,0,0.5v0c0,0.1,0,0.3,0.1,0.4v0c0,0.1,0.1,0.3,0.1,0.4v0c0,0.1,0.1,0.3,0.1,0.4
		c0.2,0.4,0.4,0.8,0.6,1.2l0.2,0.3c0,0,0,0,0,0c0.1,0.1,0.2,0.2,0.3,0.3l0.1,0.1c0.1,0.1,0.2,0.2,0.3,0.2c0.1,0.1,0.1,0,0.1,0.1
		c0.1,0.1,0.2,0.1,0.3,0.2c0,0,0.1,0,0.1,0.1c0.1,0.1,0.2,0.1,0.3,0.2l0.1,0.1c0.1,0,0.2,0.1,0.3,0.1l0.1,0.1c0.1,0,0.2,0.1,0.3,0.1
		c0,0,0.1,0,0.1,0c0.1,0,0.2,0.1,0.4,0.1c0,0,0.1,0,0.1,0l0.4,0.1c0.2,0,0.5,0.1,0.7,0c2.8,0,5.1-2.3,5.1-5.1
		C93,40.6,90.7,38.3,87.9,38.3z"/>
</g>
</svg>
