<?xml version="1.0" encoding="utf-8"?>
<!-- Generator: Adobe Illustrator 25.0.1, SVG Export Plug-In . SVG Version: 6.00 Build 0)  -->
<svg version="1.1" id="Layer_1" xmlns="http://www.w3.org/2000/svg" xmlns:xlink="http://www.w3.org/1999/xlink" x="0px" y="0px"
	 viewBox="0 0 219 193.5" style="enable-background:new 0 0 219 193.5;" xml:space="preserve">
<style type="text/css">
	.st0{fill:#0C0C0C;}
</style>
<g>
	<path class="st0" d="M95.9,29.5c0,0,0,0.1,0,0.1c0,0.3,0.2,0.5,0.2,0.8l0.1,0.5c0,0.1,0.1,0.3,0.1,0.4c1.2,3.3,3.9,5.9,7.2,7.1
		c0.2,0.1,0.4,0.2,0.6,0.2c0.1,0.1,0.3,0.1,0.4,0.1c0.2,0,0.5,0.2,0.8,0.2c0.1,0,0.2,0,0.2,0l0.9,0.1h0.2c0.7,0.1,1.4,0.1,2.1,0h0.2
		l1-0.1c0.1,0,0.2,0,0.2,0c0.3,0,0.5-0.1,0.8-0.2c0.1,0,0.2,0,0.4-0.1c0.1-0.1,0.4-0.1,0.6-0.2c3.3-1.2,5.9-3.8,7.2-7.1l0.1-0.4
		c0-0.2,0.1-0.3,0.1-0.5c0.1-0.3,0.2-0.5,0.2-0.8v-0.1c0.1-0.4,0.1-0.7,0.1-1.1c0-0.4,0-0.8,0-1.3c0-6.7-5.4-12.1-12.1-12.1
		s-12.1,5.4-12.1,12.1c0,0.4,0,0.8,0.1,1.3C95.8,28.7,95.9,29.1,95.9,29.5z"/>
	<path class="st0" d="M66.7,140.8H66c-0.2,0-0.4,0-0.6,0c-0.2,0-0.4,0-0.6,0.1c-0.2,0-0.4,0-0.6,0.1h-0.1c-0.2,0-0.4,0.1-0.5,0.1
		s0,0-0.1,0.1l-0.5,0.1c0,0-0.1,0-0.1,0l-0.4,0.2c-0.1,0-0.2,0-0.2,0.1l-0.3,0.1c-0.1,0.1-0.2,0.1-0.3,0.1c0,0.1-0.1,0.1-0.2,0.1
		s-0.2,0.1-0.4,0.2s0,0-0.1,0c-0.1,0.1-0.3,0.2-0.4,0.2c-5.8,3.3-7.7,10.7-4.4,16.5c2.2,3.8,6.3,6.1,10.7,6c5.3,0,9.9-3.4,11.5-8.5
		c0.1-0.5,0.2-1,0.3-1.5c0-0.1,0-0.2,0-0.4c0-0.1,0-0.2,0-0.3c0-0.1,0-0.3,0-0.5v-1C78.6,146.3,73.3,140.9,66.7,140.8z"/>
	<path class="st0" d="M107.8,59.7c-20.4,0-37,16.6-37,37c0,20.4,16.6,37,37,37c20.4,0,37-16.6,37-37
		C144.8,76.3,128.2,59.7,107.8,59.7z M117.5,106.8h-3.6l-13.6-16.4v16.4h-3.8V85h3.6l13.6,16.4V85h3.8V106.8z"/>
	<path class="st0" d="M133,34.5c-2.9-1.2-5.8-2.1-8.9-2.9c-1.7,6.5-7.1,11.3-13.7,12.3h-0.1c-0.2,0.1-0.4,0.1-0.7,0.1h-0.2
		c-0.2,0-0.4,0-0.6,0h-2c-0.2,0-0.4,0-0.6,0H106c-0.2,0-0.4,0-0.7-0.1h-0.1c-6.6-1-12-5.8-13.8-12.3c-36,9-57.8,45.4-48.8,81.4
		c2.4,9.8,7.1,18.9,13.5,26.6c1-0.8,2-1.5,3.2-2c0,0,0.1,0,0.2-0.1c0.2-0.1,0.3-0.1,0.5-0.2l0.3-0.2c0.1,0,0.2-0.1,0.3-0.1
		c0.1,0,0.2-0.1,0.4-0.1c0.2,0,0.2,0,0.2-0.1c0.6-0.2,1.2-0.3,1.8-0.5c0,0,0.1,0,0.2,0c0.2,0,0.3,0,0.5-0.1c0.2-0.1,0.2-0.1,0.3-0.1
		c0.1,0,0.3,0,0.4,0c0.1,0,0.2,0,0.4,0c0.2,0,0.2,0,0.4,0s0.3,0,0.5,0h1.1c9.3,0,16.9,7.6,16.9,16.9v1.1c0,0.2,0,0.4,0,0.6
		c0,0.1,0,0.2,0,0.2c0,0.2,0,0.4,0,0.6c0,0.1,0,0.2,0,0.2c0,0.2,0,0.4-0.1,0.6c0,0,0,0.1,0,0.2l-0.2,0.7v0c-0.1,0.6-0.3,1.2-0.6,1.8
		c34.4,13.9,73.5-2.7,87.4-37.1C184,87.5,167.4,48.4,133,34.5z M107.8,138.6L107.8,138.6c-23.1,0-41.8-18.8-41.8-41.9
		c0-23.1,18.8-41.8,41.9-41.8c23.1,0,41.8,18.8,41.8,41.9C149.7,119.8,130.9,138.6,107.8,138.6z"/>
	<path class="st0" d="M11.5,82.3h0.6c6.6,0,12-5.4,12.1-12c0-0.3,0-0.6,0-0.9v-0.2c-0.1-0.6-0.2-1.2-0.3-1.8c-0.2-0.9-0.5-1.8-1-2.7
		c-0.3-0.5-0.6-1-0.9-1.5c0,0,0-0.1-0.1-0.1l-0.4-0.6l-0.1-0.2c-0.2-0.1-0.3-0.3-0.4-0.5l-0.2-0.2c-0.1-0.1-0.3-0.3-0.4-0.4
		c-0.1-0.1-0.2-0.2-0.3-0.3c-0.1-0.1-0.2-0.2-0.3-0.2c-0.1-0.1-0.2-0.2-0.3-0.3c-0.2-0.1-0.3-0.2-0.5-0.3c-0.1-0.1-0.2-0.1-0.3-0.2
		c-0.1-0.1-0.2-0.1-0.3-0.2c-0.2-0.1-0.3-0.2-0.5-0.3c-0.1-0.1-0.3-0.1-0.4-0.2c-0.1-0.1-0.2-0.1-0.3-0.1c-0.2-0.1-0.4-0.2-0.7-0.2
		c-1.3-0.5-2.7-0.7-4.1-0.7C5.4,58.2,0.2,63.7,0.3,70.4c0.1,6,4.6,10.9,10.5,11.7c0.1,0,0.3,0,0.5,0S11.5,82.3,11.5,82.3z"/>
	<path class="st0" d="M201.9,118.2c-1.3-0.4-2.6-1-3.8-1.7c-0.9-0.6-1.8-1.2-2.6-1.9l-0.1-0.1c-0.1-0.2-0.3-0.3-0.4-0.4
		c0-0.1-0.1-0.1-0.1-0.1c-0.2-0.1-0.2-0.2-0.4-0.4c-0.1-0.1-0.1-0.1-0.2-0.2c-0.1-0.1-0.2-0.3-0.3-0.4c0,0-0.1-0.1-0.2-0.2
		c-0.1-0.2-0.3-0.3-0.4-0.5c-0.1-0.1-0.1-0.2-0.2-0.3c-0.1-0.1-0.1-0.2-0.2-0.2c-0.1-0.2-0.1-0.2-0.2-0.4c-0.1-0.1-0.1-0.1-0.2-0.2
		c-0.1-0.1-0.2-0.2-0.2-0.4c0,0,0-0.1-0.1-0.2c-0.3-0.5-0.6-1.1-0.8-1.7c-0.1-0.2-0.2-0.4-0.2-0.5c0,0,0-0.1,0-0.2
		c0-0.2-0.1-0.3-0.2-0.5c0-0.1,0-0.1,0-0.2c0-0.1-0.1-0.3-0.2-0.5c0-0.1,0-0.2,0-0.2c-0.1-0.5-0.2-1-0.3-1.5c0-0.1-0.1-0.2-0.1-0.4
		c0-0.1,0-0.2,0-0.3c0-0.1,0-0.3,0-0.4c0-0.1,0-0.2,0-0.3c0-0.1,0-0.3,0-0.5v-1.9c0-0.1,0-0.3,0-0.4c0-0.1,0-0.3,0-0.4
		c0-0.2,0-0.4,0-0.5c0-0.1,0-0.2,0-0.2c0.1-0.2,0.1-0.4,0.1-0.6v-0.1c1.2-6.7,6.3-12,12.9-13.4h0.1c0.2-0.1,0.4-0.1,0.5-0.1
		c0,0,0.1,0,0.2,0c-6.5-53.2-54.8-91.1-108-84.6c-33,4-61.6,24.6-75.9,54.6c0.1,0.1,0.3,0.2,0.4,0.2c0.1,0.1,0.2,0.1,0.3,0.2
		c0.2,0.1,0.3,0.2,0.5,0.3c0.1,0,0.2,0.1,0.2,0.2c0.4,0.2,0.7,0.5,1.1,0.8c0.2,0.1,0.3,0.2,0.4,0.4c0.1,0.1,0.2,0.2,0.3,0.2l0.4,0.4
		c0.1,0.1,0.3,0.3,0.4,0.4c0.1,0.2,0.2,0.3,0.4,0.4c0.1,0.2,0.3,0.4,0.5,0.6c0.1,0.2,0.1,0.1,0.2,0.2c0,0.1,0.3,0.4,0.5,0.6
		s0,0.1,0.1,0.1c0.4,0.6,0.8,1.2,1.1,1.9c0.5,1,0.9,2,1.2,3.1v0c0.2,0.7,0.4,1.4,0.4,2.1V68c0,0.3,0,0.6,0.1,0.9v0.2
		c0,0.3,0.1,0.7,0.1,1.1c0,9.3-7.5,16.9-16.8,17c0,0-0.1,0-0.1,0h-0.7c-0.3,3.2-0.5,6.4-0.5,9.6c0.1,53.5,43.5,96.8,97,96.7
		c45.1-0.1,84.1-31.2,94.2-75.1C202.1,118.3,202,118.2,201.9,118.2z M177.5,113.9c-7.9,32.1-36.6,54.7-69.7,54.9
		c-9.5,0-18.9-1.9-27.7-5.5c-5.7,7.4-16.3,8.8-23.8,3.1c-4.2-3.2-6.6-8.2-6.6-13.4c0-3.4,1-6.8,3-9.6
		c-25.7-30.4-21.9-75.8,8.5-101.5c8.6-7.2,18.7-12.4,29.6-15c0.3-9.4,8.2-16.7,17.5-16.4c8.9,0.3,16.1,7.5,16.4,16.4
		C163.3,36.3,187,75.3,177.5,113.9z"/>
	<path class="st0" d="M206.9,89.7l0.1,0.3h-0.6c-0.2,0-0.3,0-0.5,0h-0.2c-0.1,0-0.2,0-0.4,0c-0.1,0-0.2,0-0.3,0c-0.1,0-0.1,0-0.2,0
		c-0.1,0-0.2,0-0.4,0.1h-0.1c-5.5,1.3-9.4,6.2-9.4,11.8c0,0.4,0,0.7,0,1.1v0.1c0,0.3,0.1,0.7,0.1,1v0.1c0.1,0.3,0.1,0.7,0.2,1v0.1
		c0.1,0.3,0.2,0.7,0.3,1c0.4,1,0.9,1.9,1.5,2.8l0.6,0.7c0,0,0,0.1,0.1,0.1c0.2,0.2,0.4,0.4,0.6,0.6l0.1,0.1c0.2,0.2,0.4,0.4,0.6,0.6
		s0.2,0.1,0.2,0.2c0.2,0.2,0.5,0.3,0.7,0.5c0.1,0,0.1,0.1,0.2,0.2c0.2,0.2,0.4,0.3,0.7,0.4l0.3,0.1c0.2,0.1,0.4,0.2,0.6,0.3l0.3,0.1
		c0.2,0.1,0.5,0.2,0.7,0.2c0.1,0,0.2,0.1,0.3,0.1c0.2,0.1,0.5,0.1,0.8,0.2c0.1,0,0.2,0,0.3,0l0.8,0.1c0.6,0.1,1.1,0.1,1.7,0.1
		c6.7,0,12-5.4,12-12C218.9,95.1,213.5,89.7,206.9,89.7z"/>
</g>
</svg>
